<svg width="62" height="59" viewBox="0 0 62 59" fill="none" xmlns="http://www.w3.org/2000/svg">
<rect x="2.25" y="2.25" width="45.375" height="43.2869" rx="9.75" stroke="#067BE2" stroke-width="4.5"/>
<rect x="11.375" y="11.2952" width="28" height="3.47541" rx="1.7377" fill="#067BE2"/>
<rect x="11.375" y="20.8525" width="28" height="3.47541" rx="1.7377" fill="#067BE2"/>
<rect x="11.375" y="30.4099" width="28" height="3.47541" rx="1.73771" fill="#067BE2"/>
<mask id="path-5-outside-1_180_452" maskUnits="userSpaceOnUse" x="33" y="31" width="29" height="28" fill="black">
<rect fill="white" x="33" y="31" width="29" height="28"/>
<path fill-rule="evenodd" clip-rule="evenodd" d="M47.0777 34C45.998 34 45.1228 34.8752 45.1228 35.9549V43.059H37.9412C36.8691 43.059 36 43.9281 36 45.0002C36 46.0723 36.8691 46.9414 37.9412 46.9414H45.1228V54.0451C45.1228 55.1248 45.998 56 47.0777 56C48.1574 56 49.0326 55.1248 49.0326 54.0451V46.9414H56.2145C57.2866 46.9414 58.1557 46.0723 58.1557 45.0002C58.1557 43.9281 57.2866 43.059 56.2145 43.059H49.0326V35.9549C49.0326 34.8752 48.1574 34 47.0777 34Z"/>
</mask>
<path fill-rule="evenodd" clip-rule="evenodd" d="M47.0777 34C45.998 34 45.1228 34.8752 45.1228 35.9549V43.059H37.9412C36.8691 43.059 36 43.9281 36 45.0002C36 46.0723 36.8691 46.9414 37.9412 46.9414H45.1228V54.0451C45.1228 55.1248 45.998 56 47.0777 56C48.1574 56 49.0326 55.1248 49.0326 54.0451V46.9414H56.2145C57.2866 46.9414 58.1557 46.0723 58.1557 45.0002C58.1557 43.9281 57.2866 43.059 56.2145 43.059H49.0326V35.9549C49.0326 34.8752 48.1574 34 47.0777 34Z" fill="#067BE2"/>
<path d="M45.1228 43.059V46.059H48.1228V43.059H45.1228ZM45.1228 46.9414H48.1228V43.9414H45.1228V46.9414ZM49.0326 46.9414V43.9414H46.0326V46.9414H49.0326ZM49.0326 43.059H46.0326V46.059H49.0326V43.059ZM48.1228 35.9549C48.1228 36.5321 47.6549 37 47.0777 37V31C44.3412 31 42.1228 33.2184 42.1228 35.9549H48.1228ZM48.1228 43.059V35.9549H42.1228V43.059H48.1228ZM37.9412 46.059H45.1228V40.059H37.9412V46.059ZM39 45.0002C39 45.585 38.5259 46.059 37.9412 46.059V40.059C35.2122 40.059 33 42.2712 33 45.0002H39ZM37.9412 43.9414C38.5259 43.9414 39 44.4154 39 45.0002H33C33 47.7291 35.2122 49.9414 37.9412 49.9414V43.9414ZM45.1228 43.9414H37.9412V49.9414H45.1228V43.9414ZM48.1228 54.0451V46.9414H42.1228V54.0451H48.1228ZM47.0777 53C47.6549 53 48.1228 53.4679 48.1228 54.0451H42.1228C42.1228 56.7816 44.3412 59 47.0777 59V53ZM46.0326 54.0451C46.0326 53.4679 46.5005 53 47.0777 53V59C49.8142 59 52.0326 56.7816 52.0326 54.0451H46.0326ZM46.0326 46.9414V54.0451H52.0326V46.9414H46.0326ZM56.2145 43.9414H49.0326V49.9414H56.2145V43.9414ZM55.1557 45.0002C55.1557 44.4154 55.6297 43.9414 56.2145 43.9414V49.9414C58.9434 49.9414 61.1557 47.7291 61.1557 45.0002H55.1557ZM56.2145 46.059C55.6297 46.059 55.1557 45.585 55.1557 45.0002H61.1557C61.1557 42.2712 58.9434 40.059 56.2145 40.059V46.059ZM49.0326 46.059H56.2145V40.059H49.0326V46.059ZM46.0326 35.9549V43.059H52.0326V35.9549H46.0326ZM47.0777 37C46.5005 37 46.0326 36.5321 46.0326 35.9549H52.0326C52.0326 33.2184 49.8142 31 47.0777 31V37Z" fill="white" mask="url(#path-5-outside-1_180_452)"/>
</svg>
