<svg width="19" height="25" viewBox="0 0 19 25" fill="none" xmlns="http://www.w3.org/2000/svg">
<path fill-rule="evenodd" clip-rule="evenodd" d="M11.2788 3.28341C11.4868 2.95312 11.6072 2.56205 11.6072 2.14286C11.6072 0.95939 10.6478 0 9.46432 0C8.28086 0 7.32147 0.95939 7.32147 2.14286C7.32147 2.56506 7.44357 2.95875 7.65439 3.29053L7.1428 3.39285L6.07137 3.92857L5.17851 4.46428L4.28565 5.35714L3.57139 6.24999L2.85709 7.67857L2.49995 9.10714L2.49997 15.3571L1.24997 17.5L0.535684 18.75L0.178541 19.4643L0 20L0.000108093 20C0.000108093 20.789 0.6397 21.4286 1.42868 21.4286H5.01786C5.10854 22.3395 5.54401 23.1973 6.25538 23.8493C7.05911 24.5861 8.1492 25 9.28584 25C10.4225 25 11.5126 24.5861 12.3163 23.8493C13.0277 23.1973 13.4631 22.3395 13.5538 21.4286H17.489C18.2534 21.4286 18.8449 20.7585 18.75 20H18.7499L18.7499 20L18.5714 19.4643L18.2142 18.75L17.8571 18.0357L16.7857 15.8929L16.4285 14.8214V9.10714L16.0714 7.85714L15.3571 6.24999L14.4642 5.17857L13.3928 4.28571L12.1428 3.57142L11.2788 3.28341ZM17.2959 20L16.7857 19.1071L15.8928 17.3214L15.3571 16.25L14.9999 15.3571V14.8214V12.1429L14.9999 11.25V9.28571L14.6428 7.85714L14.1071 6.96428L13.2142 5.89285L11.9642 4.99999L10.7142 4.64285L9.6428 4.46428H8.57137L7.32137 4.82142L6.42851 5.35714L5.35711 6.25L4.46425 7.5L3.92852 9.28571L3.92852 15.3571L3.5714 16.4286L2.49997 18.3929L1.53568 20H17.2959ZM12.1892 21.4286H6.38247C6.46742 22.0089 6.75775 22.5516 7.21445 22.9702C7.76382 23.4738 8.50892 23.7567 9.28584 23.7567C10.0628 23.7567 10.8079 23.4738 11.3572 22.9702C11.8139 22.5516 12.1043 22.0089 12.1892 21.4286ZM9.46432 2.91155C9.03978 2.91155 8.69563 2.5674 8.69563 2.14286C8.69563 1.71832 9.03978 1.37416 9.46432 1.37416C9.88886 1.37416 10.233 1.71832 10.233 2.14286C10.233 2.5674 9.88886 2.91155 9.46432 2.91155Z" fill="#067BE2"/>
</svg>
