<svg width="23" height="23" viewBox="0 0 23 23" fill="none" xmlns="http://www.w3.org/2000/svg">
<path fill-rule="evenodd" clip-rule="evenodd" d="M1.41954 19.5403C0.668957 20.2909 0.668956 21.5078 1.41954 22.2584C2.17013 23.009 3.38707 23.009 4.13766 22.2584L11.8389 14.5571L19.5402 22.2583C20.2907 23.0089 21.5077 23.0089 22.2583 22.2583C23.0089 21.5077 23.0089 20.2908 22.2583 19.5402L14.5571 11.839L22.2584 4.13766C23.009 3.38707 23.009 2.17013 22.2584 1.41954C21.5078 0.668956 20.2909 0.668958 19.5403 1.41954L11.8389 9.1209L4.13751 1.41947C3.38693 0.66888 2.16999 0.66888 1.4194 1.41947C0.668814 2.17005 0.668817 3.38699 1.4194 4.13758L9.12083 11.839L1.41954 19.5403Z" fill="#7A7B7B"/>
</svg>
