<svg width="13" height="13" viewBox="0 0 13 13" fill="#FFFFFF" xmlns="http://www.w3.org/2000/svg">
<path d="M9.75079 6.97653H10.9353V11.7096C10.9353 11.9305 10.7563 12.1096 10.5353 12.1096H9.75079V6.97653Z"/>
<path d="M1.45892 6.97653H2.64347V12.1096H1.85892C1.63801 12.1096 1.45892 11.9305 1.45892 11.7096V6.97653Z"/>
<path d="M3.828 8.75333C3.828 8.42623 4.09317 8.16106 4.42028 8.16106H5.01255V11.7147H3.828V8.75333Z"/>
<path d="M7.38165 8.16106H7.97393C8.30103 8.16106 8.5662 8.42623 8.5662 8.75333V11.7147H7.38165V8.16106Z"/>
<path d="M5.22369 0.917908C5.73064 0.410958 6.55257 0.410958 7.05952 0.917908L11.7727 5.63105C12.0261 5.88453 12.0261 6.29549 11.7727 6.54896C11.5192 6.80244 11.1082 6.80244 10.8548 6.54896L5.22369 0.917908Z"/>
<rect x="5.63263" y="0.509552" width="1.18455" height="7.96572" rx="0.592275" transform="rotate(45 5.63263 0.509552)"/>
<path d="M2.64347 12.8993C1.98926 12.8993 1.45892 12.3689 1.45892 11.7147L10.9353 11.7147C10.9353 12.3689 10.405 12.8993 9.75077 12.8993L2.64347 12.8993Z"/>
<path d="M1.45892 6.97653L1.45892 5.79198L10.9353 5.79198V6.97653L1.45892 6.97653Z"/>
<path d="M5.0127 9.34561V8.16106H8.0127V9.34561H5.0127Z"/>
</svg>
