<svg width="74" height="74" viewBox="0 0 74 74" fill="none" xmlns="http://www.w3.org/2000/svg">
<path d="M74 37C74 57.4345 57.4345 74 37 74C16.5655 74 0 57.4345 0 37C0 16.5655 16.5655 0 37 0C57.4345 0 74 16.5655 74 37ZM7.25553 37C7.25553 53.4274 20.5726 66.7445 37 66.7445C53.4274 66.7445 66.7445 53.4274 66.7445 37C66.7445 20.5726 53.4274 7.25553 37 7.25553C20.5726 7.25553 7.25553 20.5726 7.25553 37Z" fill="#7A7B7B"/>
<path fill-rule="evenodd" clip-rule="evenodd" d="M20.5062 20.5418C19.2967 22.0749 19.5591 24.2982 21.0922 25.5076L28.3901 31.2647L34.8236 36.34V54.5249C34.8236 56.6285 36.5289 58.3338 38.6324 58.3338C40.736 58.3338 42.4413 56.6285 42.4413 54.5249V33.7352L42.4413 33.7352L25.511 19.9869C23.9799 18.7437 21.7277 18.9933 20.5062 20.5418Z" fill="#7A7B7B"/>
</svg>
