<svg width="54" height="76" viewBox="0 0 54 76" fill="none" xmlns="http://www.w3.org/2000/svg">
<path d="M50 28.5779C50 38.1413 38.5835 58.2644 31.8372 69.3209C29.5947 72.9961 24.4053 72.9961 22.1628 69.3209C15.4165 58.2644 4 38.1413 4 28.5779C4 15.0039 14.2975 4 27 4C39.7026 4 50 15.0039 50 28.5779ZM17.2031 28.5779C17.2031 34.3598 21.5893 39.047 27 39.047C32.4107 39.047 36.7969 34.3598 36.7969 28.5779C36.7969 22.796 32.4107 18.1089 27 18.1089C21.5893 18.1089 17.2031 22.796 17.2031 28.5779Z" stroke="#7A7B7B" stroke-width="6.25"/>
</svg>
