<svg width="76" height="61" viewBox="0 0 76 61" fill="none" xmlns="http://www.w3.org/2000/svg">
<path fill-rule="evenodd" clip-rule="evenodd" d="M59.1332 36.6421C64.541 34.0441 68.2803 28.466 68.2803 22.0037C68.2803 13.0599 61.1177 5.80957 52.2822 5.80957C43.4468 5.80957 36.2842 13.0599 36.2842 22.0037C36.2842 28.4664 40.024 34.0449 45.4324 36.6426C42.8782 37.5195 40.5132 38.8784 38.4623 40.6444C37.1598 41.766 37.299 43.7501 38.5828 44.8931C39.8887 46.0557 41.8783 45.8945 43.2747 44.8422C44.9679 43.5661 46.9166 42.6567 48.9998 42.1864C52.1176 41.4825 55.3756 41.7986 58.3045 43.0892C61.2334 44.3797 63.6821 46.5781 65.2977 49.3676C66.391 51.2554 67.0647 53.3481 67.2873 55.501C67.4645 57.2136 68.6809 58.7515 70.3939 58.925C72.1127 59.0991 73.6697 57.8397 73.5925 56.1138C73.4364 52.625 72.4455 49.2099 70.6851 46.1704C68.4007 42.2261 64.9384 39.1177 60.797 37.2929C60.25 37.0519 59.6949 36.8349 59.1332 36.6421ZM52.2822 31.6796C47.0031 31.6796 42.7235 27.3476 42.7235 22.0037C42.7235 16.6599 47.0031 12.3279 52.2822 12.3279C57.5614 12.3279 61.8409 16.6599 61.8409 22.0037C61.8409 27.3476 57.5614 31.6796 52.2822 31.6796Z" fill="#7A7B7B"/>
<path fill-rule="evenodd" clip-rule="evenodd" d="M30.7807 34.3356C36.6871 31.5195 40.7711 25.4727 40.7711 18.4675C40.7711 8.77249 32.9484 0.913086 23.2987 0.913086C13.6489 0.913086 5.82627 8.77249 5.82627 18.4675C5.82627 25.4732 9.91083 31.5203 15.8178 34.3362C15.1243 34.5725 14.4408 34.842 13.77 35.1442C10.7944 36.4844 8.13198 38.4373 5.95502 40.8766C3.77807 43.3159 2.13506 46.1871 1.13231 49.3046C0.478871 51.3361 0.106793 53.4427 0.0221636 55.5653C-0.0529262 57.4486 1.65414 58.8121 3.52836 58.6121C5.39996 58.4123 6.71933 56.7223 6.90639 54.8494C7.02274 53.6844 7.26208 52.532 7.62239 51.4118C8.33157 49.2071 9.49355 47.1764 11.0332 45.4513C12.5728 43.7262 14.4557 42.345 16.5601 41.3971C18.6645 40.4493 20.9436 39.9559 23.2498 39.9488C25.556 39.9417 27.838 40.4212 29.9482 41.3561C32.0583 42.2911 33.9496 43.6607 35.4997 45.3763C37.0497 47.092 38.224 49.1154 38.9465 51.3158C39.3136 52.4337 39.56 53.5846 39.6834 54.7487C39.8818 56.6205 41.2116 58.3026 43.0844 58.4909C44.9597 58.6794 46.6584 57.3056 46.5719 55.4229C46.4744 53.3007 46.0895 51.1964 45.4237 49.1689C44.4021 46.0576 42.7416 43.1965 40.5499 40.7706C38.3582 38.3447 35.684 36.4081 32.7003 35.0861C32.0706 34.8072 31.4301 34.5568 30.7807 34.3356ZM23.2987 29.0943C17.4571 29.0943 12.7216 24.3365 12.7216 18.4675C12.7216 12.5986 17.4571 7.84081 23.2987 7.84081C29.1402 7.84081 33.8758 12.5986 33.8758 18.4675C33.8758 24.3365 29.1402 29.0943 23.2987 29.0943Z" fill="#7A7B7B"/>
</svg>
