<svg width="25" height="27" viewBox="0 0 25 27" fill="none" xmlns="http://www.w3.org/2000/svg">
<path d="M23.5117 20.9844C23.954 21.3151 24.0472 21.9446 23.6847 22.3612C22.0449 24.246 19.9091 25.6441 17.5112 26.3903C14.794 27.2358 11.8792 27.2011 9.18294 26.2911C6.48671 25.3811 4.14698 23.6424 2.49792 21.3233C0.848848 19.0042 -0.0252176 16.2233 0.00055363 13.3777C0.0263249 10.5322 0.950614 7.76758 2.64142 5.47871C4.33222 3.18983 6.70305 1.49378 9.41533 0.632777C12.1276 -0.228228 15.0426 -0.210149 17.744 0.684432C20.128 1.47393 22.2381 2.91048 23.8436 4.82469C24.1985 5.24785 24.0939 5.87554 23.6456 6.19816L14.6065 12.7037C14.0582 13.0983 14.0508 13.9118 14.5919 14.3162L23.5117 20.9844Z" fill="#067BE2"/>
</svg>
