<svg width="25" height="25" viewBox="0 0 25 25" fill="none" xmlns="http://www.w3.org/2000/svg">
<rect width="25" height="25" fill="#E5E5E5"/>
<g clip-path="url(#clip0_19_688)">
<rect width="1828" height="1898" transform="translate(-1780 -15)" fill="#F0F0F0"/>
<rect x="-1782" y="-16" width="1829" height="54" fill="#FDFDFD"/>
<path d="M25 12.5C25 19.4036 19.4036 25 12.5 25C5.59644 25 0 19.4036 0 12.5C0 5.59644 5.59644 0 12.5 0C19.4036 0 25 5.59644 25 12.5ZM1.81604 12.5C1.81604 18.4006 6.59941 23.184 12.5 23.184C18.4006 23.184 23.184 18.4006 23.184 12.5C23.184 6.59941 18.4006 1.81604 12.5 1.81604C6.59941 1.81604 1.81604 6.59941 1.81604 12.5Z" fill="#067BE2"/>
<path d="M17.5 10.8333C17.5 13.5948 15.2614 15.8333 12.5 15.8333C9.73858 15.8333 7.5 13.5948 7.5 10.8333C7.5 8.07192 9.73858 5.83334 12.5 5.83334C15.2614 5.83334 17.5 8.07192 17.5 10.8333ZM9.09998 10.8333C9.09998 12.7111 10.6222 14.2334 12.5 14.2334C14.3778 14.2334 15.9 12.7111 15.9 10.8333C15.9 8.95556 14.3778 7.43332 12.5 7.43332C10.6222 7.43332 9.09998 8.95556 9.09998 10.8333Z" fill="#067BE2"/>
<path d="M19.1336 22.3304C19.2265 21.4018 19.1234 20.4641 18.8311 19.578C18.5387 18.6918 18.0635 17.8769 17.4363 17.1859C16.8091 16.4949 16.0439 15.9433 15.1901 15.5668C14.3362 15.1903 13.4129 14.9972 12.4797 15C11.5465 15.0029 10.6244 15.2016 9.77286 15.5833C8.92135 15.9651 8.15946 16.5213 7.53649 17.2161C6.91352 17.9109 6.44335 18.7287 6.1564 19.6166C5.86945 20.5046 5.7721 21.4429 5.87067 22.3708L7.70214 22.1763C7.63081 21.5047 7.70126 20.8256 7.90894 20.183C8.11662 19.5403 8.4569 18.9485 8.90776 18.4456C9.35862 17.9428 9.91002 17.5402 10.5263 17.264C11.1426 16.9877 11.81 16.8439 12.4853 16.8418C13.1607 16.8397 13.829 16.9795 14.4469 17.252C15.0648 17.5245 15.6187 17.9237 16.0726 18.4238C16.5265 18.9239 16.8704 19.5136 17.082 20.155C17.2936 20.7964 17.3682 21.475 17.301 22.147L19.1336 22.3304Z" fill="#067BE2"/>
</g>
<defs>
<clipPath id="clip0_19_688">
<rect width="1828" height="1898" fill="white" transform="translate(-1780 -15)"/>
</clipPath>
</defs>
</svg>
